<svg id="Capa_1" enable-background="new 0 0 512 512" height="512" viewBox="0 0 512 512" width="512" xmlns="http://www.w3.org/2000/svg"><g><path d="m497 481.993h-15v-407c0-7.148-5.054-13.301-12.056-14.707l-301-60c-4.395-.85-8.979.264-12.451 3.105-3.472 2.857-5.493 7.105-5.493 11.602v196h45c24.814 0 45 20.186 45 45v256h90v-62.518c-34.191-6.969-60-37.266-60-73.482 0-36.05 29.209-105 75-105s75 68.95 75 105c0 36.216-25.809 66.513-60 73.482v62.518h136c8.291 0 15-6.709 15-15s-6.709-15-15-15zm-211-301h-60c-8.291 0-15-6.709-15-15s6.709-15 15-15h60c8.291 0 15 6.709 15 15s-6.709 15-15 15zm0-60h-60c-8.291 0-15-6.709-15-15s6.709-15 15-15h60c8.291 0 15 6.709 15 15s-6.709 15-15 15zm120 120h-60c-8.291 0-15-6.709-15-15s6.709-15 15-15h60c8.291 0 15 6.709 15 15s-6.709 15-15 15zm0-60h-60c-8.291 0-15-6.709-15-15s6.709-15 15-15h60c8.291 0 15 6.709 15 15s-6.709 15-15 15z"/><path d="m391 375.993c0-29.619-24.141-75-45-75s-45 45.381-45 75c0 24.814 20.186 45 45 45s45-20.186 45-45z"/><path d="m196 240.993h-106v-105c0-8.291-6.709-15-15-15s-15 6.709-15 15v105h-15c-8.284 0-15 6.714-15 15v226h-15c-8.284 0-15 6.714-15 15 0 8.284 6.716 15 15 15h196v-256c0-8.286-6.716-15-15-15zm-45 210h-61c-8.291 0-15-6.709-15-15s6.709-15 15-15h61c8.291 0 15 6.709 15 15s-6.709 15-15 15zm0-60h-61c-8.291 0-15-6.709-15-15s6.709-15 15-15h61c8.291 0 15 6.709 15 15s-6.709 15-15 15zm0-60h-61c-8.291 0-15-6.709-15-15s6.709-15 15-15h61c8.291 0 15 6.709 15 15s-6.709 15-15 15z"/></g></svg>