<svg height="422pt" viewBox="-6 0 422 422.094" width="422pt" xmlns="http://www.w3.org/2000/svg"><path d="m89.535156.160156c-49.421875 0-89.488281 40.066406-89.488281 89.488282 0 49.421874 40.066406 89.488281 89.488281 89.488281s89.488282-40.066407 89.488282-89.488281c-.054688-49.402344-40.089844-89.433594-89.488282-89.488282zm0 85.679688c16.203125-.027344 29.867188 12.0625 31.816406 28.148437 1.949219 16.082031-8.433593 31.085938-24.171874 34.929688v8.242187c0 3.867188-3.136719 7-7 7-3.867188 0-7-3.132812-7-7v-8c-14.953126-2.925781-25.695313-16.089844-25.566407-31.324218-.03125-2.511719 1.292969-4.847657 3.464844-6.113282 2.167969-1.261718 4.851563-1.261718 7.023437 0 2.167969 1.265625 3.492188 3.601563 3.460938 6.113282.003906 9.929687 8.058594 17.976562 17.992188 17.972656 9.929687-.003906 17.976562-8.058594 17.972656-17.988282-.003906-9.933593-8.058594-17.980468-17.992188-17.972656-17.644531-.027344-31.933594-14.34375-31.921875-31.988281-.132812-15.238281 10.613281-28.40625 25.566407-31.332031v-8.367188c0-3.867187 3.132812-7 7-7 3.863281 0 7 3.132813 7 7v8.605469c14.324218 3.5 24.40625 16.339844 24.410156 31.089844-.046875 3.84375-3.179688 6.941406-7.027344 6.941406s-6.976562-3.097656-7.023438-6.941406c.003907-9.9375-8.050781-18-17.988281-18.003907-9.9375-.003906-17.996093 8.050782-18 17.988282-.003906 9.9375 8.050781 17.996094 17.988281 18zm0 0"/><path d="m228.179688 420.558594 47 .441406v-58.261719c0-3.867187 3.378906-6.691406 7.246093-6.691406h59.257813c3.867187 0 7.496094 2.824219 7.496094 6.691406v58.941407l44 .414062v-117.046875h-165zm0 0"/><path d="m212.878906 291.046875h197.429688l-98.585938-85.597656zm0 0"/><path d="m289.179688 421.132812 46 .417969v-51.503906h-46zm0 0"/><path d="m238.433594 49.496094 49.746094 50v-23.570313c0-3.4375 2.496093-6.363281 5.890624-6.90625 3.535157-.542969 7.105469-.808593 10.683594-.792969 9.015625.015626 17.960938 1.546876 26.46875 4.535157 17.671875 6.191406 33.023438 18.175781 45.777344 35.667969-.339844-15.480469-5-42.597657-30.339844-63.578126-.148437-.121093-.289062-.269531-.425781-.402343-.496094-.453125-16.109375-14.398438-50.039063-14.398438h-1c-3.878906-.011719-7.015624-3.160156-7.015624-7.039062v-23.011719zm0 0"/><path d="m114.179688 326.390625c-.0625 3.460937-2.605469 6.375-6.023438 6.910156-12.53125 1.78125-25.308594.496094-37.234375-3.742187-17.671875-6.195313-33.046875-18.175782-45.800781-35.671875.339844 15.484375 4.988281 42.601562 30.328125 63.582031.148437.121094.285156.152344.421875.285156.5.457032 16.097656 14.292969 50.03125 14.292969h1c3.96875.097656 7.167968 3.289063 7.277344 7.261719v23.011718l49.742187-49.496093-49.742187-49.996094zm0 0"/></svg>