<?xml version="1.0" encoding="iso-8859-1"?>
<!-- Generator: Adobe Illustrator 18.0.0, SVG Export Plug-In . SVG Version: 6.00 Build 0)  -->
<!DOCTYPE svg PUBLIC "-//W3C//DTD SVG 1.1//EN" "http://www.w3.org/Graphics/SVG/1.1/DTD/svg11.dtd">
<svg version="1.1" id="Capa_1" xmlns="http://www.w3.org/2000/svg" xmlns:xlink="http://www.w3.org/1999/xlink" x="0px" y="0px"
	 viewBox="0 0 478.322 478.322" style="enable-background:new 0 0 478.322 478.322;" xml:space="preserve">
<g>
	<circle cx="388.222" cy="203.327" r="34.544"/>
	<path d="M476.252,342.55l-53.164-91.253c-2.547-4.372-7.718-7.461-11.615-7.461c-3.897,0-44.616-0.067-44.789-0.069
		c-4.929-0.053-9.875,1.881-13.025,6.142l-26.291,35.558l-33.308-21.178c-0.992-0.63-2.031-1.118-3.094-1.495L226.16,105.266
		c-2.406-5.849-7.531-9.74-13.31-10.85c-10.881,12.007-26.591,19.561-44.033,19.561c-17.442,0-33.153-7.555-44.035-19.562
		c-5.781,1.109-10.908,5.001-13.315,10.852l-38.942,94.66l-48.061,40.749c-3.664,3.107-5.765,7.363-6.257,11.789
		C7.481,257.343,0,268.154,0,280.685v21.473c0,4.64,3.763,8.402,8.402,8.402c4.64,0,8.402-3.762,8.402-8.402v-21.473
		c0-5.436,3.076-10.162,7.575-12.544c3.352,2.891,7.549,4.393,11.782,4.393c1.927,0,3.856-0.32,5.714-0.94
		c2.062,2.464,3.308,5.634,3.308,9.091v179.298c0,4.64,3.763,8.402,8.402,8.402c4.64,0,8.403-3.762,8.403-8.402V280.685
		c0-7.127-2.425-13.695-6.484-18.937l47.105-39.939l9.221-22.414v22.866L78.114,327.599c-5.67,17.715,7.545,35.823,26.146,35.823
		h7.571V447c0,13.423,11.122,24.249,24.652,23.768c12.888-0.459,22.915-11.442,22.915-24.338v-83.008h18.831V447
		c0,13.423,11.12,24.249,24.651,23.768c12.888-0.458,22.916-11.443,22.916-24.339v-83.007h7.571
		c18.601,0,31.817-18.108,26.146-35.823l-33.717-105.337v-22.867l33.965,82.561c2.873,6.981,9.613,11.202,16.721,11.202
		c1.699,0,3.419-0.244,5.112-0.746l41.413,26.332c2.524,1.605,5.351,2.376,8.15,2.376c4.675,0,9.271-2.152,12.24-6.168l6.896-9.326
		v147.752c0,8.865,7.185,16.051,16.05,16.051c8.865,0,16.051-7.186,16.051-16.051v-81.451c0-3.502,2.839-6.34,6.34-6.34
		c3.502,0,6.341,2.839,6.341,6.34v81.451c0,8.865,7.187,16.051,16.051,16.051c8.864,0,16.051-7.186,16.051-16.051v-134.63
		l22.789,39.115c2.826,4.85,7.921,7.556,13.156,7.556c2.6,0,5.234-0.667,7.643-2.07C478.024,359.12,480.48,349.808,476.252,342.55z"
		/>
	<path d="M168.818,101.551c25.965,0,47.005-21.042,47.005-47.006c0-25.965-21.04-47.006-47.005-47.006
		c-25.966,0-47.007,21.041-47.007,47.006C121.811,80.509,142.852,101.551,168.818,101.551z"/>
</g>
<g>
</g>
<g>
</g>
<g>
</g>
<g>
</g>
<g>
</g>
<g>
</g>
<g>
</g>
<g>
</g>
<g>
</g>
<g>
</g>
<g>
</g>
<g>
</g>
<g>
</g>
<g>
</g>
<g>
</g>
</svg>
