<svg id="Capa_1" enable-background="new 0 0 512 512" height="512" viewBox="0 0 512 512" width="512" xmlns="http://www.w3.org/2000/svg"><g><path d="m376.134 331.954h-20.92c-17.462 0-30.897 14.457-43.654 28.233-3.232 3.458-6.406 6.86-9.213 9.666-2.919 2.948-7.653 2.948-10.602 0l-29.48-29.481c-7.909-7.88-20.806-7.88-28.687 0-7.852 7.852-7.852 20.863 0 28.715l12.558 12.558c2.92 2.92 2.92 7.682 0 10.602-2.948 2.92-7.682 2.92-10.63 0l-12.529-12.558c-13.691-13.663-13.691-36.255 0-49.918 13.72-13.72 36.17-13.72 49.89 0l24.095 24.095c1.248-1.304 2.438-2.58 3.628-3.884 14.939-16.101 30.671-33.023 54.624-33.023h5.755c-6.265-9.099-9.95-20.126-9.95-31.946v-52.555c0-9.638 3.94-18.368 10.262-24.718 6.35-6.321 15.08-10.262 24.718-10.262h43.172c9.638 0 18.369 3.94 24.719 10.262 6.321 6.35 10.261 15.08 10.261 24.718v52.555c0 11.82-3.685 22.847-9.95 31.946h6.123c14.23 0 27.156 5.811 36.511 15.166 9.354 9.382 15.165 22.28 15.165 36.51v125.801c0 4.139-3.345 7.484-7.483 7.484h-156.078c-4.139 0-7.512-3.345-7.512-7.484v-84.529l-18.907 18.907c-6.832 6.832-15.903 10.318-25.002 10.318-8.985 0-18-3.402-24.917-10.318l-12.557-12.557c-2.92-2.92-2.92-7.654 0-10.602 2.919-2.92 7.682-2.92 10.602 0l12.558 12.557c3.969 3.969 9.156 5.924 14.315 5.924 5.244 0 10.488-2.012 14.4-5.924l31.72-31.719c2.919-2.92 7.653-2.92 10.602 0 1.445 1.474 2.183 3.373 2.183 5.301v95.13h91.192v-97.257c0-4.138 3.373-7.512 7.512-7.512s7.483 3.373 7.483 7.512v97.257h34.895v-118.29c0-10.063-4.139-19.248-10.771-25.909-6.662-6.633-15.818-10.772-25.909-10.772l-21.26-.028c-9.015 6.095-19.843 9.638-31.494 9.638-11.624.001-22.452-3.542-31.438-9.609zm-234.882-61.88-50.003-16.951-33.109 16.214v15.676c0 11.423 4.677 21.798 12.217 29.338 7.541 7.54 17.916 12.217 29.339 12.217s21.827-4.677 29.339-12.217c7.54-7.54 12.217-17.915 12.217-29.338zm-83.112-17.376 28.886-14.117c1.786-1.049 3.997-1.332 6.123-.624l48.104 16.299v-21.799c0-5.499-2.239-10.488-5.868-14.116-3.6-3.6-8.589-5.868-14.088-5.868h-43.201c-5.471 0-10.46 2.268-14.088 5.896-3.6 3.6-5.868 8.589-5.868 14.088zm390.987 15.533c-12.699 2.126-35.207 2.721-53.462-14.031-6.151 3.77-16.725 8.447-29.622 6.831v23.982c0 11.423 4.677 21.798 12.189 29.338 7.54 7.54 17.944 12.217 29.339 12.217 11.424 0 21.827-4.677 29.368-12.217 7.512-7.54 12.189-17.915 12.189-29.338v-16.782zm-83.084-22.308c9.156 1.757 18.595-1.162 25.597-7.2 3.118-2.693 7.853-2.353 10.546.766 15.505 17.83 37.247 15.675 46.942 13.549v-20.58c0-5.499-2.239-10.488-5.868-14.116-3.6-3.6-8.59-5.868-14.089-5.868h-43.172c-5.499 0-10.488 2.268-14.088 5.896-3.628 3.6-5.868 8.589-5.868 14.088zm-209.795 39.09c0 11.82-3.657 22.847-9.921 31.946h1.389c14.23 0 27.157 5.811 36.511 15.166 9.355 9.382 15.166 22.28 15.166 36.51v125.801c0 4.139-3.345 7.484-7.484 7.484-61.484 0-122.94 0-184.395 0-4.139 0-7.513-3.345-7.513-7.484v-125.801c0-14.23 5.812-27.128 15.194-36.51 9.354-9.355 22.28-15.166 36.482-15.166h1.417c-6.265-9.099-9.95-20.126-9.95-31.946v-52.555c0-9.638 3.94-18.368 10.261-24.718 6.35-6.321 15.08-10.262 24.69-10.262h43.201c9.638 0 18.368 3.94 24.689 10.262 6.35 6.35 10.262 15.08 10.262 24.718v52.555zm-25.059 46.913c-9.014 6.095-19.843 9.638-31.493 9.638-11.622 0-22.451-3.543-31.465-9.638l-16.554.028c-10.063 0-19.248 4.139-25.881 10.772-6.661 6.661-10.8 15.846-10.8 25.909v118.29h34.895v-97.257c0-4.138 3.345-7.512 7.512-7.512 4.139 0 7.483 3.373 7.483 7.512v97.257h69.62v-97.257c0-4.138 3.373-7.512 7.512-7.512s7.512 3.373 7.512 7.512v97.257h34.867v-118.29c0-10.063-4.11-19.248-10.772-25.909-6.661-6.633-15.817-10.772-25.909-10.772zm167.19-270.964c-4.139 0-7.483-3.373-7.483-7.512s3.345-7.483 7.483-7.483h159.196c4.139 0 7.483 3.345 7.483 7.483s-3.345 7.512-7.483 7.512zm0 64.007c-4.139 0-7.483-3.345-7.483-7.484 0-4.138 3.345-7.512 7.483-7.512h124.868c4.139 0 7.483 3.374 7.483 7.512 0 4.139-3.345 7.484-7.483 7.484zm0-32.004c-4.139 0-7.483-3.345-7.483-7.512 0-4.139 3.345-7.483 7.483-7.483h159.196c4.139 0 7.483 3.345 7.483 7.483 0 4.167-3.345 7.512-7.483 7.512zm-215.747-24.519c0 4.138-3.345 7.512-7.484 7.512-4.138 0-7.512-3.374-7.512-7.512 0-8.844 3.6-16.866 9.383-22.677 5.812-5.783 13.833-9.383 22.678-9.383 8.872 0 16.866 3.6 22.678 9.383 5.811 5.811 9.382 13.833 9.382 22.677 0 8.872-3.571 16.866-9.382 22.677-4.11 4.11-9.327 7.115-15.166 8.504-.198 3.968-3.487 7.143-7.512 7.143-4.139 0-7.483-3.373-7.483-7.512v-6.236c0-4.139 3.345-7.512 7.483-7.512 4.734 0 8.986-1.899 12.076-4.989 3.089-3.09 4.989-7.342 4.989-12.076 0-4.706-1.899-8.986-4.989-12.047-3.09-3.09-7.342-5.017-12.076-5.017-4.706 0-8.986 1.928-12.047 5.017-3.091 3.062-5.018 7.342-5.018 12.048zm9.581 57.6c0-4.139 3.345-7.484 7.483-7.484 4.139 0 7.512 3.345 7.512 7.484v4.592c0 4.139-3.373 7.483-7.512 7.483s-7.483-3.345-7.483-7.483zm302.743-100.97c-4.138 0-7.483-3.345-7.483-7.483 0-4.139 3.345-7.512 7.483-7.512h93.885c6.378 0 12.161 2.608 16.356 6.803s6.803 10.006 6.803 16.384v104.4c0 6.378-2.607 12.189-6.803 16.384-4.195 4.195-9.978 6.803-16.356 6.803h-127.05l-20.41 27.099c-3.033 4.054-9.128 3.94-12.047-.142l-20.297-26.958h-41.925c-6.378 0-12.161-2.608-16.356-6.803s-6.803-10.006-6.803-16.384v-104.4c0-6.378 2.608-12.189 6.803-16.384s9.978-6.803 16.356-6.803h93.885c4.139 0 7.483 3.374 7.483 7.512s-3.345 7.483-7.483 7.483h-93.885c-2.239 0-4.28.935-5.754 2.409-1.502 1.502-2.409 3.543-2.409 5.783v104.4c0 2.24.907 4.281 2.409 5.783 1.474 1.474 3.515 2.41 5.754 2.41h45.61c2.268 0 4.536 1.049 5.981 3.004l16.696 22.167 16.299-21.628c1.332-2.126 3.686-3.543 6.378-3.543h130.764c2.239 0 4.28-.936 5.754-2.41 1.502-1.502 2.409-3.543 2.409-5.783v-104.4c0-2.239-.907-4.28-2.409-5.783-1.474-1.474-3.515-2.409-5.754-2.409h-93.884zm-278.252 0c-4.167 0-7.512-3.345-7.512-7.483 0-4.139 3.345-7.512 7.512-7.512h40.706c6.435 0 12.274 2.636 16.526 6.86 4.224 4.252 6.86 10.091 6.86 16.526v104.003c0 6.435-2.636 12.274-6.86 16.526-4.252 4.224-10.091 6.86-16.526 6.86h-31.323l-20.41 27.099c-3.033 4.054-9.127 3.94-12.047-.142l-20.296-26.958h-31.323c-6.463 0-12.303-2.636-16.526-6.86-4.224-4.252-6.86-10.091-6.86-16.526v-104.003c0-6.435 2.636-12.274 6.86-16.526 4.224-4.224 10.063-6.86 16.526-6.86h40.706c4.139 0 7.512 3.374 7.512 7.512s-3.373 7.483-7.512 7.483h-40.706c-2.297 0-4.394.963-5.925 2.466-1.531 1.531-2.466 3.628-2.466 5.924v104.003c0 2.296.936 4.394 2.466 5.924 1.531 1.502 3.628 2.466 5.925 2.466h35.008c2.268 0 4.536 1.049 5.981 3.004l16.696 22.167 16.299-21.628c1.332-2.126 3.686-3.543 6.378-3.543h35.036c2.296 0 4.394-.964 5.925-2.466 1.502-1.531 2.466-3.628 2.466-5.924v-104.002c0-2.296-.964-4.394-2.466-5.924-1.531-1.502-3.629-2.466-5.925-2.466z"/></g></svg>