<svg id="Capa_1" enable-background="new 0 0 512 512" height="512" viewBox="0 0 512 512" width="512" xmlns="http://www.w3.org/2000/svg"><g><path d="m481.998 242v-103.083l-60.004-20.19v-118.727h-30v212h30v-61.621l30.004 10.096v81.525h-93.581c1.666-4.695 2.581-9.743 2.581-15.002 0-24.814-20.188-45.002-45.002-45.002h-50.935v-43.63c31.412-6.887 55.001-34.916 55.001-68.365 0-38.599-31.402-70-70.001-70-38.598 0-70 31.402-70 70 0 8.858 1.671 17.328 4.686 25.135l-64.747 42.732v104.97c-67.406 7.486-120 64.793-120 134.162 0 74.439 60.561 135 135 135s135.001-60.561 135.001-135c0-8.539-.806-16.892-2.329-24.995h32.332v159.995h211.996v-270zm-231.936-212c22.057 0 40.001 17.944 40.001 40s-17.944 40-40.001 40c-22.056 0-40-17.944-40-40s17.944-40 40-40zm-48.761 90.155c9.187 8.934 20.805 15.37 33.761 18.21v43.63h-30v30h110.935c8.272 0 15.002 6.73 15.002 15.002s-6.73 15.003-15.003 15.003h-15.992-150.004v-87.987zm-66.301 361.845c-57.897 0-105-47.103-105-105s47.103-105 105-105 105.001 47.103 105.001 105-47.104 105-105.001 105zm123.281-159.995c-8.764-19.568-22.055-36.68-38.532-50.005h80.255v50.005zm223.719 159.995h-151.996v-210h151.996z"/><path d="m135 302c-41.355 0-75 33.645-75 75s33.645 75 75 75 75-33.645 75-75-33.645-75-75-75zm0 120c-24.813 0-45-20.187-45-45s20.187-45 45-45 45 20.187 45 45-20.187 45-45 45z"/></g></svg>